<svg width="24" height="24" viewBox="0 0 24 24" fill="none" xmlns="http://www.w3.org/2000/svg">
<path d="M8 4.75C6.20507 4.75 4.75 6.20507 4.75 8V10C4.75 10.4142 4.41421 10.75 4 10.75C3.58579 10.75 3.25 10.4142 3.25 10V8C3.25 5.37665 5.37665 3.25 8 3.25H10C10.4142 3.25 10.75 3.58579 10.75 4C10.75 4.41421 10.4142 4.75 10 4.75H8Z" fill="white"/>
<path d="M4 13.25C4.41421 13.25 4.75 13.5858 4.75 14V16C4.75 17.7949 6.20507 19.25 8 19.25H10C10.4142 19.25 10.75 19.5858 10.75 20C10.75 20.4142 10.4142 20.75 10 20.75H8C5.37665 20.75 3.25 18.6234 3.25 16V14C3.25 13.5858 3.58579 13.25 4 13.25Z" fill="white"/>
<path d="M20 13.25C20.4142 13.25 20.75 13.5858 20.75 14V16C20.75 18.6234 18.6234 20.75 16 20.75H14C13.5858 20.75 13.25 20.4142 13.25 20C13.25 19.5858 13.5858 19.25 14 19.25H16C17.7949 19.25 19.25 17.7949 19.25 16V14C19.25 13.5858 19.5858 13.25 20 13.25Z" fill="white"/>
<path d="M14 3.25C13.5858 3.25 13.25 3.58579 13.25 4C13.25 4.41421 13.5858 4.75 14 4.75H16C17.7949 4.75 19.25 6.20507 19.25 8V10C19.25 10.4142 19.5858 10.75 20 10.75C20.4142 10.75 20.75 10.4142 20.75 10V8C20.75 5.37665 18.6234 3.25 16 3.25H14Z" fill="white"/>
</svg>
