<svg width="54" height="18" viewBox="0 0 54 18" fill="none" xmlns="http://www.w3.org/2000/svg">
<path fill-rule="evenodd" clip-rule="evenodd" d="M9.6001 3.07008C9.25243 2.78035 8.74742 2.78035 8.39976 3.07008L4.30209 6.4848C4.13328 6.62547 4.23276 6.90022 4.45249 6.90022C5.20356 6.90022 5.81243 7.50908 5.81243 8.26016V14.2127C5.81243 14.7305 6.23216 15.1502 6.74993 15.1502H11.2499C11.7677 15.1502 12.1874 14.7305 12.1874 14.2127V8.26016C12.1874 7.50908 12.7963 6.90022 13.5474 6.90022C13.7671 6.90022 13.8666 6.62547 13.6978 6.4848L9.6001 3.07008ZM7.67955 2.20583C8.44442 1.56843 9.55544 1.56844 10.3203 2.20583L14.418 5.62055C15.3951 6.43483 14.8193 8.02522 13.5474 8.02522C13.4176 8.02522 13.3124 8.13041 13.3124 8.26016V14.2127C13.3124 15.3518 12.389 16.2752 11.2499 16.2752H6.74993C5.61084 16.2752 4.68743 15.3518 4.68743 14.2127V8.26016C4.68743 8.1304 4.58224 8.02522 4.45249 8.02522C3.18054 8.02522 2.60475 6.43483 3.58188 5.62055L7.67955 2.20583Z" fill="#B300F4"/>
<path fill-rule="evenodd" clip-rule="evenodd" d="M22.875 2.4375C24.2212 2.4375 25.3125 3.52881 25.3125 4.875V6.1875H28.6875V4.875C28.6875 3.52881 29.7788 2.4375 31.125 2.4375C32.4712 2.4375 33.5625 3.52881 33.5625 4.875C33.5625 6.22119 32.4712 7.3125 31.125 7.3125H29.8125V10.6875H31.125C32.4712 10.6875 33.5625 11.7788 33.5625 13.125C33.5625 14.4712 32.4712 15.5625 31.125 15.5625C29.7788 15.5625 28.6875 14.4712 28.6875 13.125V11.8125H25.3125V13.125C25.3125 14.4712 24.2212 15.5625 22.875 15.5625C21.5288 15.5625 20.4375 14.4712 20.4375 13.125C20.4375 11.7788 21.5288 10.6875 22.875 10.6875H24.1875V7.3125H22.875C21.5288 7.3125 20.4375 6.22119 20.4375 4.875C20.4375 3.52881 21.5288 2.4375 22.875 2.4375ZM21.5625 4.875C21.5625 4.15013 22.1501 3.5625 22.875 3.5625C23.5999 3.5625 24.1875 4.15013 24.1875 4.875V6.1875H22.875C22.1501 6.1875 21.5625 5.59987 21.5625 4.875ZM32.4375 4.875C32.4375 5.59987 31.8499 6.1875 31.125 6.1875H29.8125V4.875C29.8125 4.15013 30.4001 3.5625 31.125 3.5625C31.8499 3.5625 32.4375 4.15013 32.4375 4.875ZM31.125 14.4375C30.4001 14.4375 29.8125 13.8499 29.8125 13.125V11.8125H31.125C31.8499 11.8125 32.4375 12.4001 32.4375 13.125C32.4375 13.8499 31.8499 14.4375 31.125 14.4375ZM21.5625 13.125C21.5625 12.4001 22.1501 11.8125 22.875 11.8125H24.1875V13.125C24.1875 13.8499 23.5999 14.4375 22.875 14.4375C22.1501 14.4375 21.5625 13.8499 21.5625 13.125ZM25.3125 10.6875V7.3125H28.6875V10.6875H25.3125Z" fill="#B300F4"/>
<path d="M43.77 15.2586C42.9018 15.2586 42.1198 15.1149 41.424 14.8274C40.734 14.5341 40.1619 14.1201 39.7076 13.5854C39.2591 13.0506 38.9659 12.4153 38.8279 11.6793L40.1216 11.4636C40.3286 12.2686 40.7656 12.9011 41.4326 13.3611C42.0996 13.8154 42.896 14.0425 43.8218 14.0425C44.4313 14.0425 44.9775 13.9476 45.4605 13.7579C45.9435 13.5624 46.323 13.2864 46.599 12.9299C46.875 12.5734 47.013 12.1508 47.013 11.662C47.013 11.34 46.9555 11.0669 46.8405 10.8426C46.7255 10.6126 46.5731 10.4229 46.3834 10.2734C46.1936 10.1239 45.9866 10.0003 45.7624 9.90252C45.5381 9.79902 45.3196 9.71564 45.1069 9.65239L41.9588 8.71227C41.5793 8.60302 41.2285 8.46502 40.9065 8.29827C40.5845 8.12577 40.3028 7.92164 40.0613 7.68589C39.8255 7.44439 39.6415 7.16264 39.5093 6.84064C39.377 6.51864 39.3109 6.15064 39.3109 5.73664C39.3109 5.03514 39.4949 4.42852 39.8629 3.91677C40.2309 3.40502 40.734 3.01114 41.3723 2.73514C42.0105 2.45914 42.7379 2.32402 43.5544 2.32977C44.3824 2.32977 45.1213 2.47639 45.771 2.76964C46.4265 3.06289 46.967 3.48264 47.3925 4.02889C47.818 4.56939 48.0998 5.21052 48.2378 5.95227L46.9095 6.19377C46.8233 5.65327 46.6249 5.18464 46.3144 4.78789C46.0039 4.39114 45.6071 4.08639 45.1241 3.87364C44.6469 3.65514 44.1208 3.54302 43.5458 3.53727C42.988 3.53727 42.4906 3.63214 42.0536 3.82189C41.6224 4.00589 41.2803 4.25889 41.0273 4.58089C40.7743 4.90289 40.6478 5.27089 40.6478 5.68489C40.6478 6.10464 40.7628 6.44102 40.9928 6.69402C41.2285 6.94702 41.516 7.14539 41.8553 7.28914C42.2003 7.43289 42.5338 7.55077 42.8558 7.64277L45.288 8.35864C45.541 8.42764 45.8371 8.52827 46.1764 8.66052C46.5214 8.78702 46.8549 8.97102 47.1769 9.21252C47.5046 9.44827 47.7749 9.75877 47.9876 10.144C48.2004 10.5293 48.3068 11.018 48.3068 11.6103C48.3068 12.1853 48.1918 12.6999 47.9618 13.1541C47.7375 13.6084 47.4184 13.9908 47.0044 14.3013C46.5961 14.6118 46.116 14.8475 45.564 15.0085C45.0178 15.1753 44.4198 15.2586 43.77 15.2586Z" fill="#B300F4"/>
</svg>
