<svg width="109" height="25" viewBox="0 0 109 25" fill="none" xmlns="http://www.w3.org/2000/svg">
<path fill-rule="evenodd" clip-rule="evenodd" d="M10.6153 4.09194C11.0348 3.38252 11.9895 3.38252 12.409 4.09195L14.5583 7.72629C14.7027 7.97038 14.9261 8.14672 15.1845 8.2204L19.0311 9.31743C19.7819 9.53157 20.0769 10.5177 19.5854 11.1703L17.0671 14.5135C16.898 14.738 16.8126 15.0233 16.8279 15.313L17.056 19.6253C17.1005 20.4671 16.3281 21.0766 15.6048 20.7705L11.8991 19.2023C11.6503 19.097 11.374 19.097 11.1252 19.2023L7.4195 20.7705C6.69615 21.0766 5.92378 20.4671 5.9683 19.6253L6.19635 15.313C6.21166 15.0233 6.12631 14.738 5.95717 14.5135L3.4389 11.1703C2.94734 10.5177 3.24236 9.53157 3.99321 9.31743L7.83981 8.2204C8.09816 8.14672 8.32162 7.97038 8.46597 7.72629L10.6153 4.09194ZM9.62734 8.55871L11.5121 5.37158L13.397 8.55871C13.7318 9.125 14.247 9.52907 14.837 9.69731L18.1771 10.6499L16.0004 13.5396C15.6087 14.0596 15.4086 14.7241 15.4445 15.4016L15.6428 19.1521L12.3964 17.7782C11.8274 17.5375 11.1969 17.5375 10.6279 17.7782L7.38149 19.1521L7.57982 15.4016C7.61565 14.7241 7.41562 14.0596 7.02391 13.5396L4.84722 10.6499L8.18734 9.69731C8.77727 9.52907 9.29245 9.125 9.62734 8.55871Z" fill="#E29B00"/>
<path d="M11.5121 5.37158L9.62734 8.55871C9.29245 9.125 8.77727 9.52907 8.18734 9.69731L4.84722 10.6499L7.02391 13.5396C7.41562 14.0596 7.61565 14.7241 7.57982 15.4016L7.38149 19.1521L10.6279 17.7782C11.1969 17.5375 11.8274 17.5375 12.3964 17.7782L15.6428 19.1521L15.4445 15.4016C15.4086 14.7241 15.6087 14.0596 16.0004 13.5396L18.1771 10.6499L14.837 9.69731C14.247 9.52907 13.7318 9.125 13.397 8.55871L11.5121 5.37158Z" fill="#E29B00"/>
<path fill-rule="evenodd" clip-rule="evenodd" d="M32.4762 4.34048C32.8829 3.65278 33.8083 3.65278 34.215 4.34048L36.2985 7.86352C36.4384 8.10013 36.655 8.27107 36.9055 8.34249L40.6343 9.40592C41.3621 9.6135 41.6481 10.5695 41.1716 11.2021L38.7304 14.4428C38.5665 14.6605 38.4838 14.9371 38.4986 15.2178L38.7197 19.3981C38.7628 20.2141 38.0141 20.8049 37.3129 20.5082L33.7208 18.9881C33.4795 18.886 33.2117 18.886 32.9705 18.9881L29.3783 20.5082C28.6771 20.8049 27.9284 20.2141 27.9716 19.3981L28.1926 15.2178C28.2075 14.9371 28.1247 14.6605 27.9608 14.4428L25.5196 11.2021C25.0431 10.5695 25.3291 9.6135 26.057 9.40592L29.7858 8.34249C30.0362 8.27107 30.2528 8.10013 30.3927 7.86352L32.4762 4.34048ZM31.5185 8.67044L33.3456 5.58093L35.1727 8.67044C35.4973 9.21938 35.9967 9.61108 36.5686 9.77417L39.8064 10.6976L37.6964 13.4988C37.3167 14.0029 37.1228 14.647 37.1575 15.3038L37.3498 18.9393L34.2027 17.6076C33.6512 17.3742 33.04 17.3742 32.4885 17.6076L29.3415 18.9393L29.5337 15.3038C29.5685 14.647 29.3746 14.0029 28.9948 13.4988L26.8848 10.6976L30.1226 9.77417C30.6945 9.61108 31.1939 9.21938 31.5185 8.67044Z" fill="#E29B00"/>
<path d="M33.3456 5.58093L31.5185 8.67044C31.1939 9.21938 30.6945 9.61108 30.1226 9.77417L26.8848 10.6976L28.9948 13.4988C29.3746 14.0029 29.5685 14.647 29.5337 15.3038L29.3415 18.9393L32.4885 17.6076C33.04 17.3742 33.6512 17.3742 34.2027 17.6076L37.3498 18.9393L37.1575 15.3038C37.1228 14.647 37.3167 14.0029 37.6964 13.4988L39.8064 10.6976L36.5686 9.77417C35.9967 9.61108 35.4973 9.21938 35.1727 8.67044L33.3456 5.58093Z" fill="#E29B00"/>
<path fill-rule="evenodd" clip-rule="evenodd" d="M53.9701 4.34048C54.3768 3.65278 55.3022 3.65278 55.7089 4.34048L57.7924 7.86352C57.9323 8.10013 58.1489 8.27107 58.3994 8.34249L62.1282 9.40592C62.856 9.6135 63.142 10.5695 62.6655 11.2021L60.2243 14.4428C60.0604 14.6605 59.9777 14.9371 59.9925 15.2178L60.2136 19.3981C60.2567 20.2141 59.508 20.8049 58.8068 20.5082L55.2146 18.9881C54.9734 18.886 54.7056 18.886 54.4644 18.9881L50.8722 20.5082C50.171 20.8049 49.4223 20.2141 49.4655 19.3981L49.6865 15.2178C49.7014 14.9371 49.6186 14.6605 49.4547 14.4428L47.0135 11.2021C46.537 10.5695 46.823 9.6135 47.5509 9.40592L51.2797 8.34249C51.5301 8.27107 51.7467 8.10013 51.8866 7.86352L53.9701 4.34048ZM53.0124 8.67044L54.8395 5.58093L56.6666 8.67044C56.9912 9.21938 57.4906 9.61108 58.0625 9.77417L61.3003 10.6976L59.1903 13.4988C58.8106 14.0029 58.6167 14.647 58.6514 15.3038L58.8437 18.9393L55.6966 17.6076C55.1451 17.3742 54.5339 17.3742 53.9824 17.6076L50.8354 18.9393L51.0276 15.3038C51.0624 14.647 50.8685 14.0029 50.4887 13.4988L48.3787 10.6976L51.6165 9.77417C52.1884 9.61108 52.6878 9.21938 53.0124 8.67044Z" fill="#E29B00"/>
<path d="M54.8395 5.58093L53.0124 8.67044C52.6878 9.21938 52.1884 9.61108 51.6165 9.77417L48.3787 10.6976L50.4887 13.4988C50.8685 14.0029 51.0624 14.647 51.0276 15.3038L50.8354 18.9393L53.9824 17.6076C54.5339 17.3742 55.1451 17.3742 55.6966 17.6076L58.8437 18.9393L58.6514 15.3038C58.6167 14.647 58.8106 14.0029 59.1903 13.4988L61.3003 10.6976L58.0625 9.77417C57.4906 9.61108 56.9912 9.21938 56.6666 8.67044L54.8395 5.58093Z" fill="#E29B00"/>
<path fill-rule="evenodd" clip-rule="evenodd" d="M75.464 4.34048C75.8707 3.65278 76.7961 3.65278 77.2028 4.34048L79.2863 7.86352C79.4262 8.10013 79.6428 8.27107 79.8933 8.34249L83.6221 9.40592C84.3499 9.6135 84.6359 10.5695 84.1594 11.2021L81.7182 14.4428C81.5543 14.6605 81.4715 14.9371 81.4864 15.2178L81.7075 19.3981C81.7506 20.2141 81.0019 20.8049 80.3007 20.5082L76.7085 18.9881C76.4673 18.886 76.1995 18.886 75.9583 18.9881L72.3661 20.5082C71.6649 20.8049 70.9162 20.2141 70.9594 19.3981L71.1804 15.2178C71.1953 14.9371 71.1125 14.6605 70.9486 14.4428L68.5074 11.2021C68.0309 10.5695 68.3169 9.6135 69.0448 9.40592L72.7735 8.34249C73.024 8.27107 73.2406 8.10013 73.3805 7.86352L75.464 4.34048ZM74.5063 8.67044L76.3334 5.58093L78.1605 8.67044C78.4851 9.21938 78.9845 9.61108 79.5564 9.77417L82.7942 10.6976L80.6842 13.4988C80.3045 14.0029 80.1106 14.647 80.1453 15.3038L80.3376 18.9393L77.1905 17.6076C76.639 17.3742 76.0278 17.3742 75.4763 17.6076L72.3293 18.9393L72.5215 15.3038C72.5562 14.647 72.3624 14.0029 71.9826 13.4988L69.8726 10.6976L73.1104 9.77417C73.6823 9.61108 74.1817 9.21938 74.5063 8.67044Z" fill="#E29B00"/>
<path d="M76.3334 5.58093L74.5063 8.67044C74.1817 9.21938 73.6823 9.61108 73.1104 9.77417L69.8726 10.6976L71.9826 13.4988C72.3624 14.0029 72.5562 14.647 72.5215 15.3038L72.3293 18.9393L75.4763 17.6076C76.0278 17.3742 76.639 17.3742 77.1905 17.6076L80.3376 18.9393L80.1453 15.3038C80.1106 14.647 80.3045 14.0029 80.6842 13.4988L82.7942 10.6976L79.5564 9.77417C78.9845 9.61108 78.4851 9.21938 78.1605 8.67044L76.3334 5.58093Z" fill="#E29B00"/>
<path fill-rule="evenodd" clip-rule="evenodd" d="M97.0383 3.88961C97.445 3.20192 98.3705 3.20192 98.7772 3.88961L100.861 7.41265C101.001 7.64927 101.217 7.8202 101.468 7.89162L105.196 8.95505C105.924 9.16263 106.21 10.1186 105.734 10.7512L103.293 13.992C103.129 14.2096 103.046 14.4862 103.061 14.767L103.282 18.9472C103.325 19.7632 102.576 20.354 101.875 20.0573L98.2829 18.5372C98.0416 18.4351 97.7739 18.4351 97.5326 18.5372L93.9404 20.0573C93.2393 20.354 92.4905 19.7632 92.5337 18.9472L92.7548 14.767C92.7696 14.4862 92.6869 14.2096 92.5229 13.992L90.0818 10.7512C89.6053 10.1186 89.8912 9.16263 90.6191 8.95505L94.3479 7.89162C94.5983 7.8202 94.8149 7.64927 94.9549 7.41265L97.0383 3.88961ZM96.0807 8.21958L97.9077 5.13006L99.7348 8.21958C100.059 8.76851 100.559 9.16021 101.131 9.3233L104.369 10.2467L102.259 13.0479C101.879 13.552 101.685 14.1962 101.72 14.8529L101.912 18.4885L98.7649 17.1567C98.2134 16.9233 97.6021 16.9233 97.0506 17.1567L93.9036 18.4885L94.0959 14.8529C94.1306 14.1962 93.9367 13.552 93.557 13.0479L91.447 10.2467L94.6848 9.3233C95.2566 9.16021 95.756 8.76851 96.0807 8.21958Z" fill="#E29B00" fill-opacity="0.2"/>
<path d="M97.9077 5.13006L96.0807 8.21958C95.756 8.76851 95.2566 9.16021 94.6848 9.3233L91.447 10.2467L93.557 13.0479C93.9367 13.552 94.1306 14.1962 94.0959 14.8529L93.9036 18.4885L97.0506 17.1567C97.6021 16.9233 98.2134 16.9233 98.7649 17.1567L101.912 18.4885L101.72 14.8529C101.685 14.1962 101.879 13.552 102.259 13.0479L104.369 10.2467L101.131 9.3233C100.559 9.16021 100.059 8.76851 99.7348 8.21958L97.9077 5.13006Z" fill="#E29B00" fill-opacity="0.2"/>
<path d="M97.4522 18.5372L93.86 20.0573C93.1588 20.354 92.4101 19.7632 92.4533 18.9472L92.6743 14.767C92.6892 14.4862 92.6064 14.2096 92.4425 13.992L90.0013 10.7512C89.5248 10.1186 89.8108 9.16263 90.5387 8.95505L94.2674 7.89162C94.5179 7.8202 94.7345 7.64927 94.8744 7.41265L96.9579 3.88961C97.1612 3.54576 97.4943 3.37384 97.8273 3.37384V5.13006V16.9817V18.4606C97.7 18.4606 97.5728 18.4861 97.4522 18.5372Z" fill="#E29B00"/>
</svg>
