<svg width="115" height="26" viewBox="0 0 115 26" fill="none" xmlns="http://www.w3.org/2000/svg">
<path d="M113.066 19.9538V9.71503H115V19.9538H113.066Z" fill="#B300F4"/>
<path d="M102.79 19.9538L105.919 9.71503H108.805L111.934 19.9538H109.943L107.156 10.9238H107.526L104.781 19.9538H102.79ZM104.667 17.8207V16.0147H110.071V17.8207H104.667Z" fill="#B300F4"/>
<path d="M96.223 20.1671C95.5025 20.1671 94.8957 19.9893 94.4028 19.6338C93.9098 19.2735 93.5353 18.7877 93.2794 18.1762C93.0281 17.56 92.9025 16.8703 92.9025 16.1071C92.9025 15.3345 93.0281 14.6424 93.2794 14.0309C93.5353 13.4195 93.9098 12.9383 94.4028 12.5876C94.9005 12.2368 95.5096 12.0614 96.2301 12.0614C96.9411 12.0614 97.5526 12.2392 98.0645 12.5947C98.5812 12.9454 98.977 13.4266 99.2519 14.038C99.5269 14.6495 99.6643 15.3392 99.6643 16.1071C99.6643 16.875 99.5269 17.5647 99.2519 18.1762C98.977 18.7877 98.5812 19.2735 98.0645 19.6338C97.5526 19.9893 96.9388 20.1671 96.223 20.1671ZM92.6892 23.3667V12.2747H93.8197V17.9273H93.9619V23.3667H92.6892ZM96.0666 19.0081C96.5738 19.0081 96.9933 18.8801 97.3251 18.6241C97.6569 18.3682 97.9057 18.0221 98.0716 17.586C98.2376 17.1452 98.3205 16.6522 98.3205 16.1071C98.3205 15.5667 98.2376 15.0785 98.0716 14.6424C97.9105 14.2063 97.6593 13.8603 97.318 13.6043C96.9814 13.3484 96.5524 13.2204 96.031 13.2204C95.5333 13.2204 95.1209 13.3436 94.7938 13.5901C94.4668 13.8318 94.2226 14.1708 94.0615 14.6069C93.9003 15.0382 93.8197 15.5383 93.8197 16.1071C93.8197 16.6665 93.8979 17.1665 94.0544 17.6074C94.2155 18.0435 94.462 18.3871 94.7938 18.6384C95.1256 18.8848 95.5499 19.0081 96.0666 19.0081Z" fill="white"/>
<path d="M89.5818 19.9538V9.50177H90.8474V19.9538H89.5818Z" fill="white"/>
<path d="M84.6498 20.1671C83.8961 20.1671 83.2373 20.0012 82.6732 19.6693C82.1138 19.3328 81.6778 18.8659 81.3649 18.2686C81.0521 17.6666 80.8956 16.9651 80.8956 16.164C80.8956 15.325 81.0497 14.5998 81.3578 13.9883C81.6659 13.3721 82.0949 12.898 82.6447 12.5662C83.1993 12.2297 83.8487 12.0614 84.593 12.0614C85.3656 12.0614 86.0221 12.2392 86.5625 12.5947C87.1076 12.9502 87.5153 13.4574 87.7854 14.1163C88.0604 14.7751 88.1789 15.5596 88.141 16.4697H86.8611V16.0147C86.8469 15.0714 86.6549 14.3675 86.2852 13.9029C85.9155 13.4337 85.3656 13.199 84.6356 13.199C83.8535 13.199 83.2586 13.4503 82.8509 13.9527C82.4433 14.4552 82.2395 15.1757 82.2395 16.1142C82.2395 17.0196 82.4433 17.7211 82.8509 18.2189C83.2586 18.7166 83.8393 18.9654 84.593 18.9654C85.1001 18.9654 85.541 18.8493 85.9155 18.617C86.2899 18.3848 86.5838 18.0506 86.7971 17.6145L88.013 18.034C87.7143 18.7118 87.264 19.238 86.662 19.6125C86.0648 19.9822 85.394 20.1671 84.6498 20.1671ZM81.8128 16.4697V15.453H87.4868V16.4697H81.8128Z" fill="white"/>
<path d="M71.6912 19.9538V9.71503H72.9568V14.23H78.3463V9.71503H79.612V19.9538H78.3463V15.4316H72.9568V19.9538H71.6912Z" fill="white"/>
<path d="M65.8619 15.9934V14.9482H70.1281V15.9934H65.8619Z" fill="white"/>
<path d="M63.1602 19.9538V16.1071C63.1602 15.7421 63.127 15.3914 63.0606 15.0548C62.999 14.7183 62.8876 14.4173 62.7265 14.1518C62.57 13.8816 62.3567 13.6683 62.0865 13.5119C61.8211 13.3555 61.4845 13.2773 61.0769 13.2773C60.7593 13.2773 60.4701 13.3318 60.2094 13.4408C59.9535 13.5451 59.733 13.7062 59.5482 13.9243C59.3633 14.1423 59.2187 14.4173 59.1145 14.7491C59.0149 15.0761 58.9651 15.4625 58.9651 15.908L58.1332 15.6521C58.1332 14.9079 58.266 14.2703 58.5314 13.7394C58.8016 13.2038 59.1785 12.7938 59.6619 12.5093C60.1502 12.2202 60.7237 12.0756 61.3826 12.0756C61.8803 12.0756 62.3046 12.1538 62.6554 12.3103C63.0061 12.4667 63.2976 12.6753 63.5299 12.936C63.7622 13.1919 63.9447 13.4811 64.0774 13.8034C64.2101 14.121 64.3026 14.4457 64.3547 14.7775C64.4116 15.1046 64.44 15.4151 64.44 15.7089V19.9538H63.1602ZM57.6853 19.9538V9.71503H58.8229V15.3677H58.9651V19.9538H57.6853Z" fill="white"/>
<path d="M56.4178 19.9538C55.9627 20.0438 55.5124 20.0794 55.0669 20.0604C54.626 20.0462 54.2326 19.9585 53.8866 19.7974C53.5405 19.6314 53.2774 19.3755 53.0973 19.0294C52.9456 18.7261 52.8627 18.4203 52.8485 18.1122C52.839 17.7994 52.8342 17.4462 52.8342 17.0528V10.1417H54.0999V16.9959C54.0999 17.3088 54.1022 17.5766 54.107 17.7994C54.1165 18.0222 54.1662 18.2141 54.2563 18.3753C54.4269 18.6787 54.6971 18.8564 55.0669 18.9086C55.4413 18.9607 55.8916 18.9465 56.4178 18.8659V19.9538ZM51.2771 13.3199V12.2747H56.4178V13.3199H51.2771Z" fill="white"/>
<path d="M46.5986 20.1671C46.025 20.1671 45.5439 20.0628 45.1552 19.8542C44.7713 19.6409 44.4797 19.3612 44.2807 19.0152C44.0863 18.6692 43.9891 18.29 43.9891 17.8776C43.9891 17.4747 44.065 17.1263 44.2167 16.8324C44.3731 16.5337 44.5911 16.2872 44.8708 16.0929C45.1505 15.8938 45.4847 15.7374 45.8733 15.6236C46.2383 15.5241 46.646 15.4388 47.0963 15.3677C47.5514 15.2918 48.0112 15.2231 48.4757 15.1615C48.9402 15.0998 49.3739 15.0406 49.7769 14.9837L49.3218 15.2468C49.336 14.5642 49.1986 14.0594 48.9094 13.7323C48.625 13.4052 48.132 13.2417 47.4305 13.2417C46.966 13.2417 46.5583 13.3484 46.2075 13.5617C45.8615 13.7702 45.6174 14.1115 45.4752 14.5855L44.2735 14.2229C44.4584 13.5498 44.8163 13.0213 45.3472 12.6373C45.8781 12.2534 46.5773 12.0614 47.4447 12.0614C48.1415 12.0614 48.7388 12.187 49.2365 12.4382C49.7389 12.6847 50.0992 13.0592 50.3172 13.5617C50.4263 13.7987 50.495 14.057 50.5234 14.3367C50.5519 14.6116 50.5661 14.9008 50.5661 15.2041V19.9538H49.4427V18.1122L49.7058 18.2828C49.4166 18.9038 49.0113 19.3731 48.4899 19.6907C47.9732 20.0083 47.3428 20.1671 46.5986 20.1671ZM46.7906 19.1076C47.2456 19.1076 47.6391 19.0271 47.9709 18.8659C48.3074 18.7 48.5776 18.4843 48.7814 18.2189C48.9853 17.9487 49.118 17.6548 49.1796 17.3372C49.2507 17.1002 49.2886 16.8371 49.2934 16.548C49.3028 16.2541 49.3076 16.0289 49.3076 15.8725L49.7484 16.0645C49.336 16.1213 48.9307 16.1759 48.5326 16.228C48.1344 16.2801 47.7576 16.337 47.402 16.3986C47.0465 16.4555 46.7266 16.5243 46.4422 16.6048C46.2336 16.6712 46.0369 16.7565 45.852 16.8608C45.6719 16.9651 45.5249 17.1002 45.4112 17.2661C45.3022 17.4273 45.2476 17.6287 45.2476 17.8705C45.2476 18.079 45.2998 18.2781 45.4041 18.4677C45.5131 18.6573 45.679 18.8114 45.9018 18.9299C46.1293 19.0484 46.4256 19.1076 46.7906 19.1076Z" fill="white"/>
<path d="M32.6738 19.9538V9.71503H33.8257L37.6936 17.8705L41.5403 9.71503H42.7064V19.9466H41.5047V12.4951L38.0278 19.9538H37.3524L33.8755 12.4951V19.9538H32.6738Z" fill="white"/>
<path fill-rule="evenodd" clip-rule="evenodd" d="M14.0659 2.04327C14.2094 1.98443 14.371 1.98565 14.5136 2.04664L27.6564 7.67117C27.8665 7.7611 28.0018 7.96588 28 8.19142C27.9982 8.41695 27.8597 8.61961 27.6481 8.70626L21.7959 11.1034V14.7757C21.7959 14.9382 21.7245 15.0928 21.6001 15.1996C18.6522 17.7301 15.4743 18.2648 12.7146 17.8942C9.97691 17.5265 7.65262 16.2707 6.33281 15.2117C6.1997 15.1048 6.12245 14.9448 6.12245 14.7757V10.9715L0.35975 8.70942C0.143996 8.62473 0.00179513 8.41991 1.68629e-05 8.19129C-0.00176137 7.96266 0.137237 7.75573 0.351648 7.66779L14.0659 2.04327ZM7.26531 11.4202V14.5031C8.48156 15.4178 10.513 16.4632 12.8691 16.7796C15.2843 17.1039 18.0422 16.6648 20.6531 14.5164V11.5715L14.5053 14.0897C14.3675 14.1462 14.2127 14.1473 14.074 14.0929L7.26531 11.4202ZM2.08495 8.17557L14.2811 12.9631L25.969 8.17565L14.281 3.17373L2.08495 8.17557Z" fill="#B300F4"/>
<mask id="path-13-inside-1_25_1317" fill="white">
<path d="M25.5418 17.3323C25.8892 17.4627 26.0667 17.8509 25.9186 18.1911C24.9644 20.3819 23.4227 22.2717 21.4584 23.6477C19.3103 25.1523 16.7573 25.9721 14.1348 25.9993C11.5123 26.0265 8.94285 25.2598 6.76402 23.8C4.77161 22.4651 3.19102 20.6077 2.19161 18.4371C2.03642 18.1001 2.20586 17.7083 2.55048 17.5707C2.89509 17.4331 3.28421 17.602 3.4414 17.9381C4.33894 19.8573 5.7448 21.4997 7.51196 22.6837C9.46558 23.9926 11.7694 24.68 14.1208 24.6556C16.4723 24.6313 18.7614 23.8962 20.6874 22.5471C22.4297 21.3267 23.8012 19.6555 24.6587 17.7181C24.8089 17.3788 25.1944 17.2019 25.5418 17.3323Z"/>
</mask>
<path d="M25.5418 17.3323C25.8892 17.4627 26.0667 17.8509 25.9186 18.1911C24.9644 20.3819 23.4227 22.2717 21.4584 23.6477C19.3103 25.1523 16.7573 25.9721 14.1348 25.9993C11.5123 26.0265 8.94285 25.2598 6.76402 23.8C4.77161 22.4651 3.19102 20.6077 2.19161 18.4371C2.03642 18.1001 2.20586 17.7083 2.55048 17.5707C2.89509 17.4331 3.28421 17.602 3.4414 17.9381C4.33894 19.8573 5.7448 21.4997 7.51196 22.6837C9.46558 23.9926 11.7694 24.68 14.1208 24.6556C16.4723 24.6313 18.7614 23.8962 20.6874 22.5471C22.4297 21.3267 23.8012 19.6555 24.6587 17.7181C24.8089 17.3788 25.1944 17.2019 25.5418 17.3323Z" stroke="#B300F4" stroke-width="12" mask="url(#path-13-inside-1_25_1317)"/>
</svg>
