<svg width="24" height="24" viewBox="0 0 24 24" fill="none" xmlns="http://www.w3.org/2000/svg">
<path d="M14.4697 3.53033C14.1768 3.23744 14.1768 2.76256 14.4697 2.46967C14.7626 2.17678 15.2374 2.17678 15.5303 2.46967L18.5303 5.46967C18.6045 5.54387 18.6599 5.62974 18.6965 5.72138C18.7277 5.79931 18.7452 5.8814 18.7491 5.96402C18.7497 5.97601 18.75 5.98801 18.75 6.00001C18.75 6.10089 18.7301 6.19712 18.694 6.28498C18.6587 6.37086 18.6069 6.45153 18.5385 6.52207C18.5354 6.52524 18.5323 6.52839 18.5292 6.5315L15.5303 9.53033C15.2374 9.82322 14.7626 9.82322 14.4697 9.53033C14.1768 9.23744 14.1768 8.76256 14.4697 8.46967L16.1893 6.75001H7C5.20507 6.75001 3.75 8.20508 3.75 10V16C3.75 16.4142 3.41421 16.75 3 16.75C2.58579 16.75 2.25 16.4142 2.25 16V10C2.25 7.37666 4.37665 5.25001 7 5.25001H16.1894L14.4697 3.53033Z" fill="white"/>
<path d="M21.75 8.00001C21.75 7.58579 21.4142 7.25001 21 7.25001C20.5858 7.25001 20.25 7.58579 20.25 8.00001V14C20.25 15.7949 18.7949 17.25 17 17.25L7.81066 17.25L9.53033 15.5303C9.82323 15.2374 9.82323 14.7626 9.53033 14.4697C9.23744 14.1768 8.76257 14.1768 8.46967 14.4697L5.46967 17.4697C5.39851 17.5408 5.34463 17.6228 5.30805 17.7102C5.27066 17.7994 5.25 17.8973 5.25 18C5.25 18.1057 5.27188 18.2064 5.31136 18.2976C5.34349 18.372 5.38822 18.4422 5.44557 18.5051C5.45425 18.5146 5.46317 18.5239 5.47233 18.533L8.46967 21.5303C8.76257 21.8232 9.23744 21.8232 9.53033 21.5303C9.82323 21.2374 9.82323 20.7626 9.53033 20.4697L7.81067 18.75H17C19.6234 18.75 21.75 16.6234 21.75 14V8.00001Z" fill="white"/>
</svg>
