<svg width="24" height="24" viewBox="0 0 24 24" fill="none" xmlns="http://www.w3.org/2000/svg">
<path d="M16.7803 9.78033C17.0732 9.48744 17.0732 9.01256 16.7803 8.71967C16.4874 8.42678 16.0126 8.42678 15.7197 8.71967L10.75 13.6893L8.28033 11.2197C7.98744 10.9268 7.51256 10.9268 7.21967 11.2197C6.92678 11.5126 6.92678 11.9874 7.21967 12.2803L10.2197 15.2803C10.5126 15.5732 10.9874 15.5732 11.2803 15.2803L16.7803 9.78033Z" fill="white"/>
<path fill-rule="evenodd" clip-rule="evenodd" d="M22 12C22 17.5228 17.5228 22 12 22C6.47715 22 2 17.5228 2 12C2 6.47715 6.47715 2 12 2C17.5228 2 22 6.47715 22 12ZM20.5 12C20.5 16.6944 16.6944 20.5 12 20.5C7.30558 20.5 3.5 16.6944 3.5 12C3.5 7.30558 7.30558 3.5 12 3.5C16.6944 3.5 20.5 7.30558 20.5 12Z" fill="white"/>
</svg>
